<svg version="1.1" viewBox="0.0 0.0 134.04724409448818 135.91338582677164" fill="none" stroke="none" stroke-linecap="square" stroke-miterlimit="10" xmlns:xlink="http://www.w3.org/1999/xlink" xmlns="http://www.w3.org/2000/svg"><clipPath id="p.0"><path d="m0 0l134.04724 0l0 135.91339l-134.04724 0l0 -135.91339z" clip-rule="nonzero"/></clipPath><g clip-path="url(#p.0)"><path fill="#000000" fill-opacity="0.0" d="m0 0l134.04724 0l0 135.91339l-134.04724 0z" fill-rule="evenodd"/><path fill="#3c78d8" d="m6.3766403 67.956696l24.258793 -60.646984l72.77638 0l24.25879 60.646984l-24.25879 60.646973l-72.77638 0z" fill-rule="evenodd"/><path stroke="#ff0000" stroke-width="8.0" stroke-linejoin="round" stroke-linecap="butt" d="m6.3766403 67.956696l24.258793 -60.646984l72.77638 0l24.25879 60.646984l-24.25879 60.646973l-72.77638 0z" fill-rule="evenodd"/><path fill="#000000" fill-opacity="0.0" d="m224.19948 132.25984l701.7323 0l0 81.85826l-701.7323 0z" fill-rule="evenodd"/><path fill="#ff0000" d="m21.38845 51.745407l0 0c0 -6.096874 4.9424953 -11.0393715 11.0393715 -11.0393715l0 0c2.927822 0 5.735729 1.1630745 7.806011 3.2333565c2.0702858 2.0702858 3.2333565 4.878193 3.2333565 7.806015l0 0c0 6.096874 -4.9424934 11.0393715 -11.039368 11.0393715l0 0c-6.096876 0 -11.0393715 -4.9424973 -11.0393715 -11.0393715z" fill-rule="evenodd"/><path stroke="#ff0000" stroke-width="1.0" stroke-linejoin="round" stroke-linecap="butt" d="m21.38845 51.745407l0 0c0 -6.096874 4.9424953 -11.0393715 11.0393715 -11.0393715l0 0c2.927822 0 5.735729 1.1630745 7.806011 3.2333565c2.0702858 2.0702858 3.2333565 4.878193 3.2333565 7.806015l0 0c0 6.096874 -4.9424934 11.0393715 -11.039368 11.0393715l0 0c-6.096876 0 -11.0393715 -4.9424973 -11.0393715 -11.0393715z" fill-rule="evenodd"/></g></svg>